<?xml version="1.0" standalone="no"?>
<!DOCTYPE svg PUBLIC "-//W3C//DTD SVG 20010904//EN"
 "http://www.w3.org/TR/2001/REC-SVG-20010904/DTD/svg10.dtd">
<svg version="1.0" xmlns="http://www.w3.org/2000/svg"
 width="150.000000pt" height="150.000000pt" viewBox="0 0 150.000000 150.000000"
 preserveAspectRatio="xMidYMid meet">
<metadata>
Created by potrace 1.11, written by Peter Selinger 2001-2013
</metadata>
<g transform="translate(0.000000,150.000000) scale(0.100000,-0.100000)"
fill="#000000" stroke="none">
<path d="M653 1478 c-59 -22 -124 -83 -155 -146 -17 -35 -22 -65 -23 -120 0
-71 1 -74 88 -245 49 -94 89 -176 89 -182 1 -10 -49 -43 -67 -44 -6 -1 -11 11
-11 27 -4 262 -324 385 -498 191 -56 -62 -76 -119 -72 -207 5 -106 52 -179
154 -240 41 -23 57 -27 127 -26 75 0 86 3 175 48 52 26 132 68 177 92 l82 45
21 -40 c11 -22 20 -44 20 -49 0 -5 -21 -10 -47 -11 -26 -1 -71 -12 -100 -26
-190 -87 -223 -348 -60 -478 61 -48 102 -62 187 -62 65 0 83 5 130 31 104 58
158 163 147 284 -4 47 -21 88 -96 233 l-92 176 40 21 c47 23 65 26 58 7 -7
-19 10 -102 29 -142 24 -51 82 -105 141 -132 137 -63 299 -5 371 131 23 43 27
63 27 131 -1 70 -4 87 -30 134 -53 96 -156 155 -265 150 -67 -3 -75 -6 -270
-108 -85 -45 -156 -81 -157 -81 -3 0 -43 77 -43 83 0 2 10 4 23 3 44 -3 124
21 168 51 154 106 167 322 27 448 -82 74 -189 93 -295 53z m167 -94 c42 -9 91
-54 112 -102 38 -84 9 -179 -70 -233 -29 -20 -48 -24 -104 -23 -60 0 -72 4
-105 30 -121 98 -92 277 52 327 38 14 59 14 115 1z m-468 -434 c20 -6 52 -27
72 -48 99 -101 58 -267 -75 -306 -122 -37 -240 48 -241 172 -1 131 115 217
244 182z m960 -56 c48 -31 81 -95 81 -156 -2 -152 -187 -239 -303 -141 -117
98 -80 277 66 323 43 13 114 2 156 -26z m-480 -444 c80 -54 108 -174 60 -253
-73 -116 -250 -117 -318 -2 -78 133 13 287 166 281 39 -1 65 -9 92 -26z"/>
</g>
</svg>
