<svg version="1" xmlns="http://www.w3.org/2000/svg" width="133.333" height="133.333" viewBox="0 0 100.000000 100.000000"><path d="M5 51.5V75h4c3.8 0 4-.1 4.1-3.3.1-1.7 0-4.7-.1-6.5l-.2-3.2h5.6c6.4 0 9.4-1 12.8-4.2 5.1-4.7 6.2-15.6 2.4-22.5-3.2-5.7-7.2-7.3-18.8-7.3H5v23.5zm20.6-12.4c3 3.3 2.4 10.9-1 13.1-.6.4-3.4.8-6.2.8h-5.2V37.1l3.1-.3c4.8-.5 7.4.2 9.3 2.3zM38.7 30.7c.3 1.6 3 12 5.8 23.3l5.1 20.5 4.7.3c4.4.3 5.4-.4 4.6-3.1 0-.1.4-1.4 1-3 .6-1.5 1.3-3.8 1.5-5 .2-1.2 1.5-6.2 2.7-11.1 2.2-8.7 3.1-9.2 4.2-2.7.2.9 1.6 6.9 3.2 13.4l2.9 11.8 4.5-.3c4.7-.3 5-.7 6.5-8.3.4-2 8.1-32.1 9.2-36.3.6-2 .3-2.2-3.5-2.2-3.6 0-4.1.3-4.7 2.7-.4 1.6-2 8-3.6 14.3-1.6 6.3-3 12-3.2 12.7-.6 3.2-1.4 1-5-13.8L70.7 28h-3.8c-3.6 0-3.9.2-4.8 3.7-.5 2.1-2.4 9.2-4.1 15.7-1.7 6.6-3.2 12.1-3.3 12.3-.2.1-2.1-6.9-4.2-15.7l-3.9-16h-4.3c-4.2 0-4.3.1-3.6 2.7z"/></svg>